HIERARCHY
ROOT Reference
{
  OFFSET 0 0 0
  CHANNELS 6 Xposition Yposition Zposition Zrotation Xrotation Yrotation
  JOINT Hips
  {
    OFFSET 251.394 724.17 483.536
    CHANNELS 3 Zrotation Xrotation Yrotation
    JOINT RightUpLeg
    {
      OFFSET -0.450515 -23.4426 -1.37224
      CHANNELS 3 Zrotation Xrotation Yrotation
      JOINT RightLeg
      {
        OFFSET 112.821 0.0872427 -0.321027
        CHANNELS 3 Zrotation Xrotation Yrotation
        JOINT RightFoot
        {
          OFFSET 105.718 0.000193788 0.0213165
          CHANNELS 3 Zrotation Xrotation Yrotation
          JOINT RightToeBase
          {
            OFFSET 37.638 -0.000116272 0.00224792
            CHANNELS 3 Zrotation Xrotation Yrotation
            JOINT RightToeEnd
            {
              OFFSET 21.2112 0.114605 -0.000138184
              CHANNELS 3 Zrotation Xrotation Yrotation
              End Site
              {
                OFFSET 0 0 0
              }
            }
          }
        }
      }
    }
    JOINT LeftUpLeg
    {
      OFFSET -0.449508 23.4315 -1.37054
      CHANNELS 3 Zrotation Xrotation Yrotation
      JOINT LeftLeg
      {
        OFFSET 112.821 -0.0485242 -0.372458
        CHANNELS 3 Zrotation Xrotation Yrotation
        JOINT LeftFoot
        {
          OFFSET 105.716 0.00496094 -0.0229443
          CHANNELS 3 Zrotation Xrotation Yrotation
          JOINT LeftToeBase
          {
            OFFSET 37.639 0 0.00158905
            CHANNELS 3 Zrotation Xrotation Yrotation
            JOINT LeftToeEnd
            {
              OFFSET 21.2113 -0.125031 -0.00017438
              CHANNELS 3 Zrotation Xrotation Yrotation
              End Site
              {
                OFFSET 0 0 0
              }
            }
          }
        }
      }
    }
    JOINT Spine
    {
      OFFSET -5.01225 0.000463591 -9.60395
      CHANNELS 3 Zrotation Xrotation Yrotation
      JOINT Spine1
      {
        OFFSET 26.0222 -0.000271301 -0.000155029
        CHANNELS 3 Zrotation Xrotation Yrotation
        JOINT Spine2
        {
          OFFSET 27.173 -0.000155029 -0.000310058
          CHANNELS 3 Zrotation Xrotation Yrotation
          JOINT Spine3
          {
            OFFSET 36.3953 -0.000232544 7.75146e-005
            CHANNELS 3 Zrotation Xrotation Yrotation
            JOINT Neck
            {
              OFFSET 36.4331 0 -3.00261
              CHANNELS 3 Zrotation Xrotation Yrotation
              JOINT Head
              {
                OFFSET 23.0407 -0.000232544 -0.000310058
                CHANNELS 3 Zrotation Xrotation Yrotation
                End Site
                {
                  OFFSET 0 0 0
                }
              }
            }
            JOINT LeftShoulder
            {
              OFFSET 20.1317 6.74168 -12.6061
              CHANNELS 3 Zrotation Xrotation Yrotation
              JOINT LeftArm
              {
                OFFSET 34.2172 -5.81359e-005 7.75146e-005
                CHANNELS 3 Zrotation Xrotation Yrotation
                JOINT LeftForeArm
                {
                  OFFSET 65.4129 -0.0821605 0.0585235
                  CHANNELS 3 Zrotation Xrotation Yrotation
                  JOINT LeftHand
                  {
                    OFFSET 67.3883 0.0359667 0.0112396
                    CHANNELS 3 Zrotation Xrotation Yrotation
                    JOINT LeftHandThumb1
                    {
                      OFFSET 8.78386 2.85353 -6.05362
                      CHANNELS 3 Zrotation Xrotation Yrotation
                      JOINT LeftHandThumb2
                      {
                        OFFSET 8.25498 -0.000116272 -0.000174407
                        CHANNELS 3 Zrotation Xrotation Yrotation
                        JOINT LeftHandThumb3
                        {
                          OFFSET 7.24822 0.000310058 5.81358e-005
                          CHANNELS 3 Zrotation Xrotation Yrotation
                          JOINT LeftHandThumb4
                          {
                            OFFSET 7.0004 -3.87568e-005 -0.000310057
                            CHANNELS 3 Zrotation Xrotation Yrotation
                            End Site
                            {
                              OFFSET 0 0 0
                            }
                          }
                        }
                      }
                    }
                    JOINT LeftHandIndex1
                    {
                      OFFSET 24.0991 -1.01537 -5.40558
                      CHANNELS 3 Zrotation Xrotation Yrotation
                      JOINT LeftHandIndex2
                      {
                        OFFSET 7.26759 -0.000290679 -0.000465086
                        CHANNELS 3 Zrotation Xrotation Yrotation
                        JOINT LeftHandIndex3
                        {
                          OFFSET 7.13628 -1.93787e-005 0.000232543
                          CHANNELS 3 Zrotation Xrotation Yrotation
                          JOINT LeftHandIndex4
                          {
                            OFFSET 5.46699 9.68932e-005 -0.000387571
                            CHANNELS 3 Zrotation Xrotation Yrotation
                            End Site
                            {
                              OFFSET 0 0 0
                            }
                          }
                        }
                      }
                    }
                    JOINT LeftHandMiddle1
                    {
                      OFFSET 24.4604 -2.52837 0.918567
                      CHANNELS 3 Zrotation Xrotation Yrotation
                      JOINT LeftHandMiddle2
                      {
                        OFFSET 7.41627 -5.81359e-005 0.000116271
                        CHANNELS 3 Zrotation Xrotation Yrotation
                        JOINT LeftHandMiddle3
                        {
                          OFFSET 8.76829 3.87573e-005 -7.75142e-005
                          CHANNELS 3 Zrotation Xrotation Yrotation
                          JOINT LeftHandMiddle4
                          {
                            OFFSET 6.07588 -0.00013565 -5.81356e-005
                            CHANNELS 3 Zrotation Xrotation Yrotation
                            End Site
                            {
                              OFFSET 0 0 0
                            }
                          }
                        }
                      }
                    }
                    JOINT LeftHandRing1
                    {
                      OFFSET 22.465 -1.97467 6.3466
                      CHANNELS 3 Zrotation Xrotation Yrotation
                      JOINT LeftHandRing2
                      {
                        OFFSET 7.36666 -0.000232544 0.000387571
                        CHANNELS 3 Zrotation Xrotation Yrotation
                        JOINT LeftHandRing3
                        {
                          OFFSET 8.07624 -0.000465087 -0.000203475
                          CHANNELS 3 Zrotation Xrotation Yrotation
                          JOINT LeftHandRing4
                          {
                            OFFSET 6.04433 0.00013565 3.87571e-005
                            CHANNELS 3 Zrotation Xrotation Yrotation
                            End Site
                            {
                              OFFSET 0 0 0
                            }
                          }
                        }
                      }
                    }
                    JOINT LeftHandPinky1
                    {
                      OFFSET 19.5278 0.352933 10.4295
                      CHANNELS 3 Zrotation Xrotation Yrotation
                      JOINT LeftHandPinky2
                      {
                        OFFSET 6.16525 5.8136e-005 -0.000251921
                        CHANNELS 3 Zrotation Xrotation Yrotation
                        JOINT LeftHandPinky3
                        {
                          OFFSET 6.14448 -0.000329434 -0.00510625
                          CHANNELS 3 Zrotation Xrotation Yrotation
                          JOINT LeftHandPinky4
                          {
                            OFFSET 4.98555 0.000116272 0.000116271
                            CHANNELS 3 Zrotation Xrotation Yrotation
                            End Site
                            {
                              OFFSET 0 0 0
                            }
                          }
                        }
                      }
                    }
                  }
                }
              }
            }
            JOINT RightShoulder
            {
              OFFSET 20.1309 -6.74152 -12.6063
              CHANNELS 3 Zrotation Xrotation Yrotation
              JOINT RightArm
              {
                OFFSET 34.2171 7.75146e-005 7.75146e-005
                CHANNELS 3 Zrotation Xrotation Yrotation
                JOINT RightForeArm
                {
                  OFFSET 65.4492 0.242543 -0.176501
                  CHANNELS 3 Zrotation Xrotation Yrotation
                  JOINT RightHand
                  {
                    OFFSET 67.3888 -0.0867388 0.0597442
                    CHANNELS 3 Zrotation Xrotation Yrotation
                    JOINT RightHandThumb1
                    {
                      OFFSET 8.78307 -2.85357 -6.05302
                      CHANNELS 3 Zrotation Xrotation Yrotation
                      JOINT RightHandThumb2
                      {
                        OFFSET 8.25493 -7.75145e-005 0
                        CHANNELS 3 Zrotation Xrotation Yrotation
                        JOINT RightHandThumb3
                        {
                          OFFSET 7.24797 -0.000174408 0.000155029
                          CHANNELS 3 Zrotation Xrotation Yrotation
                          JOINT RightHandThumb4
                          {
                            OFFSET 7.00062 0 0
                            CHANNELS 3 Zrotation Xrotation Yrotation
                            End Site
                            {
                              OFFSET 0 0 0
                            }
                          }
                        }
                      }
                    }
                    JOINT RightHandIndex1
                    {
                      OFFSET 24.0991 1.01525 -5.40578
                      CHANNELS 3 Zrotation Xrotation Yrotation
                      JOINT RightHandIndex2
                      {
                        OFFSET 7.26773 7.75144e-005 0.000232543
                        CHANNELS 3 Zrotation Xrotation Yrotation
                        JOINT RightHandIndex3
                        {
                          OFFSET 7.13572 -0.000310058 3.87571e-005
                          CHANNELS 3 Zrotation Xrotation Yrotation
                          JOINT RightHandIndex4
                          {
                            OFFSET 5.46717 0 3.87572e-005
                            CHANNELS 3 Zrotation Xrotation Yrotation
                            End Site
                            {
                              OFFSET 0 0 0
                            }
                          }
                        }
                      }
                    }
                    JOINT RightHandMiddle1
                    {
                      OFFSET 24.4603 2.52899 0.918547
                      CHANNELS 3 Zrotation Xrotation Yrotation
                      JOINT RightHandMiddle2
                      {
                        OFFSET 7.41641 -0.000116272 -0.000116272
                        CHANNELS 3 Zrotation Xrotation Yrotation
                        JOINT RightHandMiddle3
                        {
                          OFFSET 8.76765 -3.87577e-005 0.000232543
                          CHANNELS 3 Zrotation Xrotation Yrotation
                          JOINT RightHandMiddle4
                          {
                            OFFSET 6.07609 -0.000193787 -0.000116271
                            CHANNELS 3 Zrotation Xrotation Yrotation
                            End Site
                            {
                              OFFSET 0 0 0
                            }
                          }
                        }
                      }
                    }
                    JOINT RightHandRing1
                    {
                      OFFSET 22.465 1.97571 6.34696
                      CHANNELS 3 Zrotation Xrotation Yrotation
                      JOINT RightHandRing2
                      {
                        OFFSET 7.36684 0.000193786 0.000155029
                        CHANNELS 3 Zrotation Xrotation Yrotation
                        JOINT RightHandRing3
                        {
                          OFFSET 8.07614 -0.000271301 0
                          CHANNELS 3 Zrotation Xrotation Yrotation
                          JOINT RightHandRing4
                          {
                            OFFSET 6.04468 0.000232543 0
                            CHANNELS 3 Zrotation Xrotation Yrotation
                            End Site
                            {
                              OFFSET 0 0 0
                            }
                          }
                        }
                      }
                    }
                    JOINT RightHandPinky1
                    {
                      OFFSET 19.5277 -0.352346 10.4296
                      CHANNELS 3 Zrotation Xrotation Yrotation
                      JOINT RightHandPinky2
                      {
                        OFFSET 6.16508 0 0.000232543
                        CHANNELS 3 Zrotation Xrotation Yrotation
                        JOINT RightHandPinky3
                        {
                          OFFSET 6.14396 -0.000155048 -0.0048834
                          CHANNELS 3 Zrotation Xrotation Yrotation
                          JOINT RightHandPinky4
                          {
                            OFFSET 4.98577 -7.75146e-005 -7.75143e-005
                            CHANNELS 3 Zrotation Xrotation Yrotation
                            End Site
                            {
                              OFFSET 0 0 0
                            }
                          }
                        }
                      }
                    }
                  }
                }
              }
            }
          }
        }
      }
    }
  }
}
MOTION
Frames:	5
Frame Time:	0.0333333
0 0 0 -90 -7.01671e-015 -180 5.40518 10.2871 -177.979 -174.449 -29.1435 -80.6198 -1.2395 -3.22051 -21.8671 -6.38349 -4.08738 25.0978 -0.546908 0.196103 48.4427 -4.16891e-005 -1.83504e-005 -86.4976 173.67 28.5133 -66.1192 -0.0173435 0.442489 -34.5794 11.0308 9.30157 27.1362 0.584591 -0.106789 58.3245 4.26548e-005 2.11041e-005 -86.4976 -1.31075 1.93697 104.814 11.325 -4.35596 -21.568 -11.4648 -1.32291 -8.49302 -0.894578 5.15239 -10.9036 0.568256 -4.31645 24.2319 -14.0085 0.155958 51.2083 96.1821 25.759 -4.96668 40.2589 6.93462 85.2729 -14.5457 -26.7088 77.9366 -8.37341 7.89419 35.379 -173.375 -50.1251 136.622 0.000423879 5.4187e-005 5.00945 0.000148718 0.000163666 25.7996 0.000172463 -0.00134853 -0.000149862 100.42 79.0802 -71.7829 6.18481e-005 -0.000871353 54.6252 0.00202952 -0.000390988 51.8874 -0.000631795 -0.000534456 -0.000476833 15.4716 85.6674 19.759 0.000156371 -0.000182609 65.9844 0.0015022 -0.00135767 28.9973 -0.000605324 -0.000178867 0.00022817 16.1781 83.9647 32.31 0.000494023 -0.00098783 38.6713 0.00208287 0.000188231 41.1951 -0.000704354 -0.0011844 0.000755368 20.9213 81.3854 5.33351 0.00141222 -0.000604231 45.7782 0.000364853 0.000195154 33.0153 -0.000193803 -5.03713e-005 -0.000327099 -80.144 -22.4476 -22.5977 -39.3322 -6.81843 104.488 20.0297 -4.91116 51.7235 9.94738 24.6708 30.2904 151.482 55.6225 154.056 -5.97125e-005 -0.000232056 1.26389 0.000340947 -0.000548116 39.8409 -1.39334e-005 1.52011e-005 175.017 -100.424 -79.0797 -62.4805 -4.32731e-005 -0.000425046 49.5861 0.000331851 0.000471966 46.5698 6.10352e-005 -0.000274658 -180 -15.4753 -85.6673 18.8153 0.000192124 -0.000596907 65.0455 0.000205635 0.000251977 28.0565 4.57763e-005 4.57763e-005 -180 -16.1824 -83.9645 31.3659 0.000194563 -0.00062603 37.7313 0.000128345 7.89548e-005 40.2554 0.000106811 -3.05175e-005 180 -20.9225 -81.3855 0.509739 0.00272799 -0.00331294 40.9943 0.000243343 0.00409079 28.2306 7.6294e-005 1.52588e-005 -180 
0 0 0 -90 -7.01671e-015 -180 5.51938 10.0091 -178.387 -174.754 -28.8236 -80.7831 -1.23991 -3.21853 -21.8606 -6.35825 -4.11628 25.1045 -0.54716 0.195398 48.5163 -4.20143e-005 -1.81964e-005 -86.4976 173.243 28.3224 -66.0226 -0.0106982 0.448742 -34.6856 10.9391 9.28907 27.152 0.584529 -0.107126 58.2914 4.30033e-005 2.13283e-005 -86.4976 -1.30918 1.93382 104.856 11.2062 -4.27981 -21.5971 -11.6204 -1.31105 -8.51781 -1.01104 5.07266 -11.107 0.183462 -4.00389 24.5617 -14.4587 0.537013 51.6615 96.0869 25.7693 -4.88981 40.1091 6.78261 85.2154 -14.469 -26.5617 78.042 -9.28953 8.34384 35.4681 -173.285 -49.2786 136.665 0.000425381 5.54069e-005 5.23151 0.000150521 0.000161612 25.4397 0.000172463 -0.00135095 -0.000149862 99.5338 79.3246 -71.3713 4.58119e-005 -0.000867527 53.7053 0.00200936 -0.000406463 50.9207 -0.000636214 -0.000526896 -0.179574 15.178 85.6805 19.7528 0.000153985 -0.000182974 64.8986 0.00148655 -0.00134896 28.5484 -0.000603223 -0.000175423 -0.178884 15.4753 84.0423 32.5946 0.000486731 -0.000980863 38.1145 0.00206994 0.000182263 40.61 -0.000703794 -0.00114562 -0.178346 21.756 81.5325 4.44163 0.0014124 -0.000622923 45.1424 0.000353581 0.000188652 32.5638 -0.000181181 -5.35368e-005 -0.179439 -80.1499 -22.4672 -22.3341 -39.3385 -7.07905 104.501 20.2388 -5.78988 50.5271 9.82559 25.2705 31.0264 151.482 55.6225 154.056 -5.97021e-005 -0.000232909 1.26369 0.000341127 -0.000547501 39.8409 -2.91951e-005 1.52013e-005 175.028 -100.424 -79.0796 -62.4805 -4.35789e-005 -0.000429277 49.5861 0.000330617 0.000468435 46.5698 6.10113e-005 -0.000259399 179.995 -15.4753 -85.6673 18.8153 0.000191785 -0.000596932 65.0455 0.000205055 0.000252298 28.0565 4.57806e-005 4.57763e-005 179.995 -16.1824 -83.9645 31.3659 0.000194802 -0.000631104 37.7313 0.000126457 7.82053e-005 40.2554 0.00010681 -3.05175e-005 179.997 -20.9225 -81.3855 0.509749 0.00272811 -0.00332005 40.9943 0.000243119 0.00409081 28.2306 6.10366e-005 1.52588e-005 179.995 
0 0 0 -90 -7.01671e-015 -180 5.61162 9.72392 -178.771 -175.551 -27.9585 -81.1951 -1.24222 -3.21193 -21.874 -6.28945 -4.19763 25.1249 -0.547815 0.193558 48.7084 -4.19211e-005 -2.49538e-005 -86.4976 172.133 27.8091 -65.7677 0.00836657 0.466623 -34.9928 10.6992 9.24727 27.19 0.584365 -0.108035 58.2023 4.34259e-005 2.12038e-005 -86.4976 -1.3046 1.9247 104.975 11.1293 -4.12719 -21.5581 -11.797 -1.25563 -8.47651 -1.09186 4.91212 -11.5487 -0.0194545 -3.63929 24.9348 -15.1029 0.943755 52.1016 95.8346 25.7956 -4.69274 39.7072 6.35575 85.0371 -14.2495 -26.1672 78.3424 -11.6472 9.36107 35.7451 -173.035 -46.9109 136.727 0.000428735 5.81864e-005 5.84966 0.000160882 0.000157316 24.4379 0.000172461 -0.00135336 -0.000149861 96.9657 80.0021 -70.1245 -1.10156e-006 -0.000863003 51.1443 0.00195795 -0.000446712 48.2296 -0.000641405 -0.000515781 -0.35867 14.3611 85.7181 19.7352 0.000148583 -0.000177379 61.8761 0.00143743 -0.00133275 27.2986 -0.000602772 -0.000172718 -0.357993 13.4767 84.2577 33.4291 0.000455041 -0.000988372 36.5643 -0.00525932 -0.00573835 38.9779 -0.000703907 -0.00110404 -0.357446 24.2485 81.9311 1.79168 0.00140851 -0.000653702 43.3724 -0.00699315 -0.00428812 31.2957 -0.000166843 -5.33621e-005 -0.358544 -80.1696 -22.5205 -21.6362 -39.4514 -7.27377 103.942 20.2693 -5.73251 49.9391 9.46802 24.9251 31.443 151.482 55.6225 154.056 -5.97481e-005 -0.000229496 1.26349 0.000340356 -0.000548181 39.8409 -4.57764e-005 -8.30378e-014 175.039 -100.424 -79.0796 -62.4806 -4.37514e-005 -0.00044198 49.5861 0.000330725 0.000468214 46.5698 6.09873e-005 -0.000259399 179.989 -15.4753 -85.6673 18.8153 0.000191791 -0.000596846 65.0455 0.000204906 0.000247001 28.0565 4.57848e-005 4.57763e-005 179.989 -16.1824 -83.9645 31.3659 0.000194736 -0.000643222 37.7313 0.000126513 7.46447e-005 40.2554 0.000106808 -3.05175e-005 179.994 -20.9226 -81.3855 0.509716 0.00272807 -0.00332429 40.9943 0.000243109 0.00409082 28.2306 6.1038e-005 1.52588e-005 179.989 
0 0 0 -90 -7.01671e-015 -180 5.6964 9.42786 -179.142 -176.656 -26.688 -81.7332 -1.24799 -3.19975 -21.9564 -6.18748 -4.32333 25.1595 -0.548717 0.190989 48.9761 -4.14709e-005 -3.05634e-005 -86.4976 170.595 27.0626 -65.4087 0.0387024 0.494669 -35.4834 10.364 9.16919 27.2364 0.584118 -0.109364 58.0722 4.38765e-005 2.11309e-005 -86.4976 -1.29709 1.91014 105.165 11.0817 -3.92509 -21.4759 -11.9964 -1.16719 -8.38892 -1.14432 4.6873 -12.1616 -0.10348 -3.23006 25.3616 -15.8898 1.36618 52.4988 95.475 25.8309 -4.42577 39.1229 5.69818 84.7272 -13.9043 -25.5942 78.8124 -14.8552 10.4458 36.2049 -172.638 -43.2744 136.667 0.00043316 6.21916e-005 6.7919 0.000176723 0.000149883 22.9109 0.000172459 -0.00135819 -0.000149861 92.7015 81.0246 -67.8747 -7.20353e-005 -0.000851278 47.2408 0.0018773 -0.000505534 44.1278 -0.000645651 -0.000505534 -0.537767 13.1169 85.777 19.7074 0.000133638 -0.00017734 57.2689 0.00137162 -0.00130664 25.3935 -0.000603969 -0.000169624 -0.537106 10.2992 84.584 34.8326 0.000411644 -0.000996011 34.2015 0.00197542 0.000116366 36.4986 -0.000703003 -0.00106677 -0.536547 28.5748 82.503 -2.76945 0.00905229 0.00976644 40.676 0.000285321 0.000138278 29.3915 -0.000153355 -5.34691e-005 -0.537654 -80.2058 -22.6 -20.6436 -39.6316 -7.39974 102.963 20.2053 -5.0147 49.8235 9.02279 23.9618 31.5712 151.482 55.6225 154.056 -6.05953e-005 -0.000231215 1.26329 0.00033682 -0.000553947 39.8408 -4.57764e-005 6.99054e-015 175.05 -100.424 -79.0796 -62.4806 -4.38575e-005 -0.000468393 49.5861 0.000332604 0.000463195 46.5698 6.09634e-005 -0.000259399 179.984 -15.4753 -85.6674 18.8153 0.0001919 -0.000597072 65.0455 0.00020628 0.000238831 28.0565 4.5789e-005 4.57763e-005 179.984 -16.1823 -83.9645 31.3659 0.000193162 -0.000671863 37.7312 0.000128871 7.3168e-005 40.2554 0.000106807 -3.05175e-005 179.991 -20.9226 -81.3855 0.509684 0.00272751 -0.00333478 40.9943 0.000243176 0.00409078 28.2306 6.10394e-005 1.52588e-005 179.984 
0 0 0 -90 -7.01671e-015 -180 5.7881 9.11721 -179.512 -177.892 -25.1565 -82.283 -1.25874 -3.18099 -22.1569 -6.06262 -4.48527 25.2089 -0.549715 0.188102 49.2764 -4.06841e-005 -4.34055e-005 -86.4976 168.884 26.1737 -64.9958 0.0792848 0.531294 -36.1402 9.98686 9.048 27.2774 0.583821 -0.110958 57.9159 4.43071e-005 2.13087e-005 -86.4976 -1.28684 1.89066 105.418 11.0507 -3.70078 -21.3756 -12.2206 -1.05681 -8.27465 -1.17547 4.41431 -12.8782 -0.130954 -2.78529 25.8545 -16.7671 1.79658 52.8221 95.0579 25.868 -4.13929 38.4248 4.85534 84.2749 -13.4511 -24.9109 79.4257 -18.3077 11.1213 36.7699 -172.066 -38.6328 136.349 0.000438437 6.86576e-005 7.9862 0.000196321 0.000138709 20.9753 0.000172463 -0.00136723 -0.000149861 86.4655 82.296 -64.1926 -0.000157296 -0.000828673 42.2929 0.00177322 -0.000576393 38.9287 -0.000649823 -0.000495782 -0.716865 11.5415 85.8542 19.6704 0.00011438 -0.000178913 51.4291 0.00129275 -0.00127508 22.9789 -0.000604252 -0.000168476 -0.716221 6.00401 84.9929 36.8797 0.000357247 -0.000996947 31.2066 0.00190049 6.26627e-005 33.3518 -0.000700198 -0.00102749 -0.715648 35.0996 83.1497 -9.58289 0.00137707 -0.000764556 37.2548 0.000230349 0.000104632 26.9634 -0.000137264 -5.49648e-005 -0.716761 -80.2613 -22.6982 -19.4958 -39.8383 -7.46186 101.74 20.1 -3.93065 50.0181 8.62264 22.7058 31.4685 151.482 55.6226 154.056 -6.06147e-005 -0.000229511 1.26309 0.00033824 -0.000556801 39.8409 -6.23488e-005 -1.52021e-005 175.061 -100.424 -79.0796 -62.4807 -4.34051e-005 -0.00052298 49.5861 0.000334267 0.000461538 46.5698 6.09394e-005 -0.000259399 179.979 -15.4754 -85.6674 18.8152 0.000192245 -0.000611056 65.0455 0.000207129 0.000216556 28.0565 4.57932e-005 4.57763e-005 179.979 -16.1824 -83.9645 31.3658 0.000194722 -0.000728745 37.7313 0.000129474 6.9565e-005 40.2554 0.000106805 -3.05175e-005 179.988 -20.9226 -81.3856 0.509638 0.00272695 -0.0033526 40.9943 0.000243427 0.00409077 28.2306 6.10408e-005 1.52588e-005 179.979 
